<svg xmlns="http://www.w3.org/2000/svg" xmlns:xlink="http://www.w3.org/1999/xlink" version="1.1" id="Ebene_1" x="0px" y="0px" viewBox="13.771 0 79.592 80.904" enable-background="new 13.771 0 79.592 80.904"
	 xml:space="preserve">
<g>
	<g>
		<g>
			<path d="M91.979,78.592c-3.771,0.078-6.153-0.188-7.151-0.807c-1.312-0.77-2.619-2.924-3.929-6.463
				c-1.537-4.154-3.078-8.23-4.616-12.232c-12-31.312-18.771-49.241-20.31-53.781c-1.231-3.538-2.079-5.31-2.54-5.31
				c-0.463,0-1.117,1.31-1.963,3.925c-1.231,3.616-2.193,6.271-2.885,7.963L34.622,50.319c-2.771,7.542-4.89,13.232-6.351,17.081
				c-1.924,5.466-3.309,8.694-4.154,9.692c-0.848,1-2.809,1.578-5.885,1.732c-2.387,0.154-3.578,0.691-3.578,1.154
				c0,0.77,0.574,0.925,1.654,0.925c0.537,0,4.482,0.016,6.296-0.122c7.463-0.567,15.287,0.122,15.287,0.122
				c1.388,0,3.314-0.042,3.314-0.696c0-0.408-0.875-0.594-1.771-0.73c-0.178-0.031-0.84-0.354-1.385-0.922
				c-1.174-1.227,2.785-12.98,6.69-23.494c5.73,0.061,12.271,0.25,12.767,0.25c0,0,2.506,7.531,2.967,9.225l2.424,7.49
				c0.922,2.848,1.386,4.459,1.386,4.842c0,0.771-0.614,1.23-1.847,1.383c-0.541,0.154-1.348,0.229-2.424,0.229
				c-4.387,0.078-6.578,0.5-6.578,1.271s1.037,1.153,3.115,1.153c1.385,0,3.998-0.077,7.848-0.229
				c1.922-0.076,4.156-0.115,6.695-0.115c2.149,0,6.076,0.076,11.77,0.23c2.85,0.076,4.578,0.114,5.195,0.114
				c2.383,0,3.865-0.06,4.443-0.172c0.575-0.116,0.861-0.479,0.861-1.101C93.362,78.94,92.903,78.592,91.979,78.592z M46.819,25.17
				l0.771,2.049c0.664,1.938,1.18,3.405,1.547,4.412c0.598,1.556,1.354,3.604,2.271,6.138l-1.242-3.335c0,0-2.984,9.01-6.396,18.896
				c-3.797-0.271-6.838-0.704-6.838-0.704S45.437,28.48,46.819,25.17z M33.283,78.641l0.611,0.051
				C33.679,78.672,33.476,78.659,33.283,78.641z M34.515,78.081c-0.352,0.625-1.197,0.562-1.283,0.558
				c-0.864-0.07-1.453-0.13-1.608-0.158c-1.693-0.386-2.539-1.229-2.539-2.539c0-0.69,0.188-1.614,0.578-2.771l2.539-7.502
				c1.922-5.385,3.922-10.387,3.922-10.387c0.498-0.271,3.487-0.336,7.084-0.318C39.722,65.018,35.947,75.514,34.515,78.081z
				 M45.319,53.427c3.146-8.387,6.091-15.646,6.091-15.646c1.209,3.355,2.692,7.574,4.457,12.65
				c0.457,1.234,0.799,2.195,0.799,2.195C54.136,53.619,49.478,53.657,45.319,53.427z"/>
		</g>
	</g>
</g>
</svg>
